#!OML:ASF F:\VICON\USERDATA\INSTALL\rory3\rory3.ASF
:FULLY-SPECIFIED
:DEGREES
596
root -7.50308 16.9448 -2.16333 42.5737 8.60524 -0.723331
lowerback 38.6021 -0.0175668 0.284951
upperback 11.1138 0.635875 4.39282
thorax -6.6198 0.200763 4.27079
lowerneck -17.3909 -1.21175 -8.30902
upperneck 13.2932 0.143793 1.6827
head 6.91968 -0.207428 1.90779
rclavicle -8.64713e-015 -5.32743e-014
rhumerus -28.0251 21.1089 -87.2816
rradius 104.857
rwrist 51.6132
rhand -22.627 -6.23334
rfingers 7.12502
rthumb 3.80333 -36.1791
lclavicle -8.64713e-015 -5.32743e-014
lhumerus -27.8951 -32.2803 86.7904
lradius 82.8886
lwrist -8.09018
lhand -41.4456 21.6263
lfingers 7.12502
lthumb -14.361 51.1095
rfemur -75.7249 -7.56218 23.3875
rtibia 41.0791
rfoot -2.55777 0.910967
rtoes 16.4219
lfemur -69.8433 5.19133 -12.2199
ltibia 39.6035
lfoot -10.1446 -6.94281
ltoes -16.2364
597
root -7.52065 16.9279 -2.1524 42.7603 8.57796 -0.858811
lowerback 38.7543 0.211377 0.00627256
upperback 11.2274 0.820965 4.51447
thorax -6.56658 0.276739 4.4764
lowerneck -15.411 -1.13813 -8.24692
upperneck 12.2776 0.0548722 1.51631
head 6.26397 -0.238935 1.82532
rclavicle 1.39149e-015 -2.15806e-014
rhumerus -28.449 21.189 -87.2438
rradius 106.028
rwrist 52.3797
rhand -22.1891 -6.47382
rfingers 7.12502
rthumb 4.22614 -36.4116
lclavicle 1.39149e-015 -2.15806e-014
lhumerus -28.4013 -32.2561 86.9132
lradius 83.6895
lwrist -8.12321
lhand -41.6411 21.6252
lfingers 7.12502
lthumb -14.5494 51.0949
rfemur -76.141 -7.5295 23.7806
rtibia 41.3981
rfoot -2.43285 1.22524
rtoes 16.3159
lfemur -70.1067 5.31826 -11.9951
ltibia 39.7912
lfoot -10.2906 -7.10042
ltoes -16.3755
598
root -7.53688 16.9157 -2.14084 42.9007 8.68361 -0.935552
lowerback 38.9255 0.386863 -0.158815
upperback 11.3291 0.988732 4.67383
thorax -6.53205 0.345434 4.66927
lowerneck -13.6019 -1.13185 -8.25496
upperneck 11.3902 -0.101023 1.40953
head 5.68705 -0.303287 1.77221
rclavicle 9.93923e-016 -1.05666e-014
rhumerus -28.7862 21.3188 -87.0613
rradius 107.059
rwrist 53.2656
rhand -21.488 -6.66918
rfingers 7.12502
rthumb 4.9032 -36.5925
lclavicle 9.93923e-016 -1.05666e-014
lhumerus -28.8641 -32.3547 87.0757
lradius 84.4933
lwrist -8.18822
lhand -41.591 21.7004
lfingers 7.12502
lthumb -14.5011 51.1737
rfemur -76.4186 -7.53247 24.0332
rtibia 41.6845
rfoot -2.46829 1.43204
rtoes 16.2811
lfemur -70.3388 5.30803 -11.7374
ltibia 40.0064
lfoot -10.4545 -7.36877
ltoes -16.4406
599
root -7.55268 16.9035 -2.12902 43.1094 8.95982 -0.997049
lowerback 38.9608 0.502163 -0.181493
upperback 11.4086 1.14077 4.88434
thorax -6.47743 0.408124 4.84813
lowerneck -11.939 -1.14559 -8.24241
upperneck 10.6246 -0.274798 1.31447
head 5.1778 -0.376937 1.72287
rclavicle 1.19271e-015 1.00697e-014
rhumerus -29.2292 21.5464 -86.7839
rradius 108.05
rwrist 53.7626
rhand -21.4164 -6.92185
rfingers 7.12502
rthumb 4.97231 -36.8435
lclavicle 1.19271e-015 1.00697e-014
lhumerus -29.3076 -32.5255 87.3189
lradius 85.1134
lwrist -8.29986
lhand -41.7125 21.883
lfingers 7.12502
lthumb -14.6182 51.3478
rfemur -76.7265 -7.59891 24.325
rtibia 41.9325
rfoot -2.60648 1.52405
rtoes 16.1461
lfemur -70.6722 5.2125 -11.4379
ltibia 40.2084
lfoot -10.5553 -7.29102
ltoes -16.6768
600
root -7.56795 16.8832 -2.12099 43.4151 9.24916 -1.07596
lowerback 38.8578 0.626269 -0.166963
upperback 11.4586 1.31368 5.08813
thorax -6.41296 0.481989 4.99258
lowerneck -10.2744 -1.1687 -8.16011
upperneck 9.76614 -0.46675 1.16278
head 4.64312 -0.457767 1.64712
rclavicle -1.27222e-014 -1.73812e-014
rhumerus -29.6207 21.6545 -86.5867
rradius 108.912
rwrist 53.7905
rhand -21.7221 -7.03873
rfingers 7.12502
rthumb 4.6771 -36.9671
lclavicle -1.27222e-014 -1.73812e-014
lhumerus -29.6361 -32.7396 87.5273
lradius 85.5746
lwrist -8.62597
lhand -41.6699 22.17
lfingers 7.12502
lthumb -14.5771 51.6378
rfemur -77.1908 -7.62919 24.619
rtibia 42.2038
rfoot -2.74512 1.54171
rtoes 16.6487
lfemur -71.1742 5.19676 -11.2025
ltibia 40.4059
lfoot -10.5907 -7.13916
ltoes -17.1226
601
root -7.58245 16.8729 -2.11059 43.4993 9.55105 -1.09519
lowerback 38.9459 0.739619 -0.173702
upperback 11.5375 1.46903 5.28315
thorax -6.37776 0.547135 5.14542
lowerneck -8.79216 -1.21004 -8.11909
upperneck 9.01617 -0.6681 1.10599
head 4.17566 -0.541119 1.6112
rclavicle 1.45113e-014 2.38045e-014
rhumerus -29.8693 21.7705 -86.3944
rradius 109.579
rwrist 53.7144
rhand -21.8428 -7.0626
rfingers 7.12502
rthumb 4.56059 -36.9935
lclavicle 1.45113e-014 2.38045e-014
lhumerus -29.7735 -33.0699 87.6683
lradius 86.0539
lwrist -8.94655
lhand -41.5525 22.9791
lfingers 7.12502
lthumb -14.464 52.455
rfemur -77.3784 -7.68972 24.7847
rtibia 42.4908
rfoot -2.96587 1.4645
rtoes 17.296
lfemur -71.4076 5.09629 -10.9862
ltibia 40.5915
lfoot -10.624 -7.24947
ltoes -17.3117
602
root -7.59959 16.8581 -2.10153 43.579 9.7234 -1.0459
lowerback 38.9997 0.933582 -0.38319
upperback 11.6079 1.64517 5.45482
thorax -6.34902 0.620744 5.37186
lowerneck -7.67598 -1.27854 -7.94071
upperneck 8.25068 -0.856832 0.812586
head 4.1763 -0.637885 1.65045
rclavicle -2.74323e-014 1.16538e-014
rhumerus -30.1504 21.9133 -86.1838
rradius 110.273
rwrist 53.6207
rhand -21.7702 -7.24448
rfingers 7.12502
rthumb 4.63071 -37.1739
lclavicle -2.74323e-014 1.16538e-014
lhumerus -29.9378 -33.441 87.8383
lradius 86.624
lwrist -9.0396
lhand -41.9326 23.6019
lfingers 7.12502
lthumb -14.8302 53.0512
rfemur -77.568 -7.65557 24.7333
rtibia 42.7944
rfoot -3.19399 1.38272
rtoes 16.7654
lfemur -71.6224 5.09223 -10.9729
ltibia 40.7858
lfoot -10.6603 -7.53899
ltoes -17.4801
603
root -7.61398 16.8409 -2.09402 43.6356 9.83415 -0.967899
lowerback 39.0201 1.15268 -0.607807
upperback 11.6814 1.84209 5.60413
thorax -6.30918 0.704303 5.57441
lowerneck -6.62634 -1.38095 -7.80545
upperneck 7.85956 -1.09512 0.676399
head 3.8346 -0.745357 1.5595
rclavicle -4.77083e-015 1.18525e-014
rhumerus -30.338 21.86 -85.9804
rradius 110.872
rwrist 53.7369
rhand -21.4882 -7.39352
rfingers 7.12502
rthumb 4.90297 -37.3168
lclavicle -4.77083e-015 1.18525e-014
lhumerus -30.1249 -33.8443 88.0626
lradius 87.1239
lwrist -9.19985
lhand -42.4249 23.8149
lfingers 7.12502
lthumb -15.3045 53.2286
rfemur -77.7651 -7.64076 24.6535
rtibia 43.1018
rfoot -3.38383 1.33169
rtoes 15.8184
lfemur -71.8015 5.13046 -11.0682
ltibia 40.9613
lfoot -10.6347 -7.72146
ltoes -17.2013
604
root -7.62587 16.8304 -2.08687 43.6567 10.0756 -0.93853
lowerback 38.9864 1.31082 -0.654369
upperback 11.7469 2.03238 5.77786
thorax -6.25774 0.786669 5.71249
lowerneck -5.65068 -1.47901 -7.80164
upperneck 7.49756 -1.32461 0.759667
head 3.52769 -0.844416 1.57124
rclavicle -1.19271e-015 -1.13059e-014
rhumerus -30.4852 21.6663 -85.8268
rradius 111.41
rwrist 54.0073
rhand -21.0765 -7.31627
rfingers 7.12502
rthumb 5.30051 -37.23
lclavicle -1.19271e-015 -1.13059e-014
lhumerus -30.3636 -34.28 88.3475
lradius 87.4422
lwrist -9.95105
lhand -42.8287 23.6771
lfingers 7.12502
lthumb -15.6934 53.0607
rfemur -77.8828 -7.65981 24.6528
rtibia 43.4023
rfoot -3.61192 1.24821
rtoes 16.3191
lfemur -71.9897 5.14251 -11.0916
ltibia 41.152
lfoot -10.5974 -7.86163
ltoes -17.025
605
root -7.63587 16.8224 -2.08231 43.6355 10.2659 -0.920926
lowerback 38.9705 1.47967 -0.718706
upperback 11.7976 2.22582 5.91972
thorax -6.2284 0.871386 5.82438
lowerneck -4.73956 -1.56825 -7.72724
upperneck 7.07131 -1.53716 0.781005
head 3.21248 -0.934977 1.55226
rclavicle 6.75868e-015 -1.27843e-014
rhumerus -30.716 21.5211 -85.6385
rradius 111.976
rwrist 54.2005
rhand -20.8201 -7.60096
rfingers 7.12502
rthumb 5.54807 -37.5083
lclavicle 6.75868e-015 -1.27843e-014
lhumerus -30.5797 -34.6016 88.604
lradius 87.9992
lwrist -10.0517
lhand -42.6266 23.8204
lfingers 7.12502
lthumb -15.4988 53.2192
rfemur -77.9415 -7.63238 24.597
rtibia 43.6902
rfoot -3.81673 1.19497
rtoes 15.5966
lfemur -72.1062 5.13847 -11.086
ltibia 41.342
lfoot -10.6204 -8.05657
ltoes -17.0261
606
root -7.64473 16.8122 -2.0808 43.5676 10.41 -0.937393
lowerback 38.9718 1.66511 -0.808094
upperback 11.841 2.42727 6.03802
thorax -6.21403 0.960037 5.92083
lowerneck -3.98415 -1.65525 -7.65853
upperneck 6.65826 -1.73037 0.799516
head 2.93501 -1.01747 1.53652
rclavicle 5.1684e-015 5.3001e-014
rhumerus -30.9685 21.3511 -85.429
rradius 112.379
rwrist 54.1459
rhand -20.8258 -7.94129
rfingers 7.12502
rthumb 5.54251 -37.8488
lclavicle 5.1684e-015 5.3001e-014
lhumerus -30.685 -34.9016 88.8286
lradius 88.4414
lwrist -10.4279
lhand -42.2967 24.4423
lfingers 7.12502
lthumb -15.181 53.8655
rfemur -77.9622 -7.55579 24.5235
rtibia 43.9498
rfoot -4.02739 1.07349
rtoes 14.4137
lfemur -72.1901 5.18462 -11.0938
ltibia 41.5411
lfoot -10.6529 -8.29068
ltoes -16.9809
607
root -7.65089 16.8049 -2.07786 43.496 10.5295 -0.92232
lowerback 38.9 1.83888 -0.915589
upperback 11.899 2.60517 6.13643
thorax -6.15799 1.03811 6.01538
lowerneck -3.5419 -1.74296 -7.56483
upperneck 6.49218 -1.89282 0.807541
head 2.80117 -1.09074 1.51617
rclavicle 2.78299e-014 5.2007e-014
rhumerus -31.1917 21.2318 -85.1474
rradius 112.649
rwrist 53.9019
rhand -21.1169 -8.04867
rfingers 7.12502
rthumb 5.2615 -37.9634
lclavicle 2.78299e-014 5.2007e-014
lhumerus -30.72 -35.2479 89.0104
lradius 88.735
lwrist -10.8802
lhand -42.0308 24.8977
lfingers 7.12502
lthumb -14.9248 54.34
rfemur -77.9814 -7.53905 24.4743
rtibia 44.1957
rfoot -4.15781 1.01677
rtoes 14.2869
lfemur -72.2673 5.24353 -11.1899
ltibia 41.7588
lfoot -10.6749 -8.47854
ltoes -16.8855
608
root -7.6524 16.8005 -2.07648 43.4359 10.5944 -0.868596
lowerback 38.7796 1.99458 -1.00279
upperback 11.9252 2.76437 6.18802
thorax -6.11571 1.11034 6.0566
lowerneck -3.31618 -1.85277 -7.42942
upperneck 6.54358 -2.06243 0.792243
head 2.78113 -1.17219 1.48134
rclavicle 7.95139e-015 2.84883e-014
rhumerus -31.2812 21.064 -84.8832
rradius 112.753
rwrist 53.6621
rhand -21.3495 -7.9945
rfingers 7.12502
rthumb 5.03693 -37.9146
lclavicle 7.95139e-015 2.84883e-014
lhumerus -30.7197 -35.6637 89.1519
lradius 88.8972
lwrist -11.0324
lhand -41.9388 25.0698
lfingers 7.12502
lthumb -14.8362 54.5187
rfemur -77.9907 -7.52781 24.3282
rtibia 44.4226
rfoot -4.31164 0.999081
rtoes 14.3221
lfemur -72.3365 5.2768 -11.3624
ltibia 42
lfoot -10.7823 -8.57451
ltoes -17.1809
609
root -7.65112 16.7944 -2.07689 43.3135 10.6516 -0.869662
lowerback 38.6987 2.15675 -0.993558
upperback 11.9332 2.96406 6.22956
thorax -6.10562 1.20287 6.02
lowerneck -3.25797 -2.00866 -7.34152
upperneck 6.65401 -2.27675 0.801256
head 2.8159 -1.2774 1.46127
rclavicle 7.95139e-015 1.04362e-014
rhumerus -31.2306 20.6992 -84.6983
rradius 112.823
rwrist 53.4064
rhand -21.2919 -7.96369
rfingers 7.12502
rthumb 5.09247 -37.8825
lclavicle 7.95139e-015 1.04362e-014
lhumerus -30.522 -36.1431 89.2816
lradius 88.9632
lwrist -11.0346
lhand -41.5818 25.3317
lfingers 7.12502
lthumb -14.4923 54.8055
rfemur -77.9254 -7.47186 24.1917
rtibia 44.6116
rfoot -4.46882 0.912807
rtoes 14.0695
lfemur -72.3502 5.31629 -11.4573
ltibia 42.2359
lfoot -10.8557 -8.69382
ltoes -17.2864
